# xmcd CD database file generated by Grip 3.3.1
# 
# Track frame offsets:
#       182
#       14690
#       34722
#       53547
#       68347
#       82352
#       96600
#       113100
#       126615
#       141050
#       155425
#       168687
#       183612
#       197495
#       212190
#       227220
#       241420
#       256347
#       270237
# 
# Disc length: 4355 seconds
# 
# Revision: 2
# Processed by: cddbd v1.5.2PL0 Copyright (c) Steve Scherf et al.
# Submitted via: Grip 3.3.1
# 
DISCID=17110113
DTITLE=Duke Ellington - The Essential [CD 2) - Reminiscing In Tempo
DYEAR=1995
DGENRE=Jazz
TTITLE0=It Don't Mean A Thing (If It Ain't Got That Swing)
TTITLE1=St. Louis Blues
TTITLE2=Creole Love Call
TTITLE3=Slippery Horn
TTITLE4=Ducky Wucky
TTITLE5=Lightnin'
TTITLE6=Sophisticated Lady
TTITLE7=Drop Me Off In Harlem
TTITLE8=Bundle Of Blues (Dragon Blues)
TTITLE9=Harlem Speaks
TTITLE10=Daybreak Express
TTITLE11=Delta Serenade
TTITLE12=Stompy Jones
TTITLE13=Solitude
TTITLE14=Saddest Tale
TTITLE15=Moonglow
TTITLE16=In A Sentimental Mood
TTITLE17=Showboat Shuffle
TTITLE18=Reminiscing In Tempo Pts. 1,2,3,4
EXTD=
EXTT0=
EXTT1=
EXTT2=
EXTT3=
EXTT4=
EXTT5=
EXTT6=
EXTT7=
EXTT8=
EXTT9=
EXTT10=
EXTT11=
EXTT12=
EXTT13=
EXTT14=
EXTT15=
EXTT16=
EXTT17=
EXTT18=
PLAYORDER=
